<?xml version="1.0" encoding="utf-8"?>
<!-- Generator: Adobe Illustrator 19.0.1, SVG Export Plug-In . SVG Version: 6.00 Build 0)  -->
<svg version="1.1" id="Layer_1" xmlns="http://www.w3.org/2000/svg" xmlns:xlink="http://www.w3.org/1999/xlink" x="0px" y="0px"
	 viewBox="0 0 530 210" style="enable-background:new 0 0 530 210;" xml:space="preserve">
<style type="text/css">
	.st0{fill:#FF3333;}
	.st1{fill:#FFFFFF;}
</style>
<path class="st0" d="M112.8,4.3c56.3,0,102,45.7,102,102v0c0,56.3-45.7,102-102,102h-5.1V4.3H112.8z M97.5,4.3H5.7
	c-2.8,0-5.1,2.3-5.1,5.1v193.8c0,2.8,2.3,5.1,5.1,5.1h91.8V4.3z M439.2,208.3h85c4.5,0,6.8-5.4,3.7-8.6l-88.7-93.1V208.3z
	 M332.1,6.8v201.4H429V95.8L340.9,3.3C337.8,0,332.1,2.2,332.1,6.8z M225,6.8v196.3c0,2.8,2.3,5.1,5.1,5.1h91.8V95.8L233.8,3.3
	C230.7,0,225,2.2,225,6.8z"/>
</svg>
