<?xml version="1.0" encoding="UTF-8" standalone="no"?>
<!-- Generator: Adobe Illustrator 19.0.1, SVG Export Plug-In . SVG Version: 6.00 Build 0)  -->

<svg
   version="1.1"
   id="Layer_1"
   x="0px"
   y="0px"
   viewBox="0 0 530 210"
   style="enable-background:new 0 0 530 210;"
   xml:space="preserve"
   sodipodi:docname="dm-logo-black.svg"
   inkscape:version="1.2 (dc2aeda, 2022-05-15)"
   xmlns:inkscape="http://www.inkscape.org/namespaces/inkscape"
   xmlns:sodipodi="http://sodipodi.sourceforge.net/DTD/sodipodi-0.dtd"
   xmlns="http://www.w3.org/2000/svg"
   xmlns:svg="http://www.w3.org/2000/svg"><defs
   id="defs9" /><sodipodi:namedview
   id="namedview7"
   pagecolor="#ffffff"
   bordercolor="#000000"
   borderopacity="0.25"
   inkscape:showpageshadow="2"
   inkscape:pageopacity="0.0"
   inkscape:pagecheckerboard="0"
   inkscape:deskcolor="#d1d1d1"
   showgrid="false"
   inkscape:zoom="1.1238095"
   inkscape:cx="198.87712"
   inkscape:cy="114.34322"
   inkscape:window-width="1715"
   inkscape:window-height="1027"
   inkscape:window-x="0"
   inkscape:window-y="44"
   inkscape:window-maximized="0"
   inkscape:current-layer="Layer_1" />
<style
   type="text/css"
   id="style2">
	.st0{fill:#FF3333;}
	.st1{fill:#FFFFFF;}
</style>
<path
   class="st0"
   d="M112.8,4.3c56.3,0,102,45.7,102,102v0c0,56.3-45.7,102-102,102h-5.1V4.3H112.8z M97.5,4.3H5.7  c-2.8,0-5.1,2.3-5.1,5.1v193.8c0,2.8,2.3,5.1,5.1,5.1h91.8V4.3z M439.2,208.3h85c4.5,0,6.8-5.4,3.7-8.6l-88.7-93.1V208.3z   M332.1,6.8v201.4H429V95.8L340.9,3.3C337.8,0,332.1,2.2,332.1,6.8z M225,6.8v196.3c0,2.8,2.3,5.1,5.1,5.1h91.8V95.8L233.8,3.3  C230.7,0,225,2.2,225,6.8z"
   id="path4"
   style="fill:#000000;fill-opacity:1" />
</svg>
