<?xml version="1.0" encoding="utf-8"?>
<!-- Generator: Adobe Illustrator 21.0.0, SVG Export Plug-In . SVG Version: 6.00 Build 0)  -->
<svg version="1.1" id="Layer_1" xmlns="http://www.w3.org/2000/svg" xmlns:xlink="http://www.w3.org/1999/xlink" x="0px" y="0px"
	 viewBox="0 0 950 120" style="enable-background:new 0 0 950 120;" xml:space="preserve">
<style type="text/css">
	.st0{fill:#EB483F;}
	.st1{fill:#FFFFFF;}
</style>
<path class="st0" d="M65.6,3c31.9,0,57.7,25.8,57.7,57.7l0,0c0,31.9-25.8,57.7-57.7,57.7h-2.9V3H65.6z M56.9,3H5
	C3.4,3,2.1,4.3,2.1,5.9v109.6c0,1.6,1.3,2.9,2.9,2.9h51.9V3z M250.2,118.4h48.1c2.5,0,3.8-3,2.1-4.9l-50.2-52.7V118.4z M189.6,4.5
	v113.9h54.8V54.8L194.6,2.5C192.8,0.6,189.6,1.9,189.6,4.5z M129,4.5v111c0,1.6,1.3,2.9,2.9,2.9h51.9V54.8L134,2.5
	C132.2,0.6,129,1.9,129,4.5z"/>
<path class="st1" d="M936.5,28.1v6.1h-1.2v-6.1h-2.2v-0.9h5.6v0.9H936.5z M946.7,34.1v-5.9l0,0l-2.3,5.9h-0.7l-2.3-5.9l0,0v5.9h-1.2
	v-7h1.8l2.1,5.3l2.1-5.3h1.8v7H946.7z M353.3,27.1c22.3,0,35,16.5,35,33.7s-12.6,33.7-35,33.7h-24.7V27.1H353.3z M344.1,40.6V81h8.4
	c12.6,0,19.9-9.8,19.9-20.2s-7.3-20.2-19.9-20.2H344.1z M406.6,74.9c0,5.6,2.6,10.3,10,10.3c5.2,0,7.6-2.3,8.7-5.3h14.4
	c-1.5,8.8-9.6,15.9-22.9,15.9c-16.3,0-25-10.8-25-24.4S400.5,47,416.2,47c14.9,0,24.2,9.8,24.2,22.7c0,1.8-0.1,2.8-0.5,5.3
	L406.6,74.9L406.6,74.9z M406.6,66.4h19.3c0-5.6-3.9-9.1-9.6-9.1C410.7,57.2,406.6,60.5,406.6,66.4z M519.8,71.3l18,23.2h-17.5
	L506,75v19.4h-14.7V27.1H506v40.6l14.3-19.6h17.5L519.8,71.3z M568,71.3c0-13.3,9.7-24.4,25.8-24.4s25.7,11.2,25.7,24.4
	c0,13.3-9.6,24.4-25.7,24.4C577.7,95.7,568,84.6,568,71.3z M604.8,71.3c0-6.4-4.4-11.8-11.2-11.8c-6.6,0-11,5.4-11,11.8
	c0,6.5,4.3,11.8,11,11.8C600.4,83.1,604.8,77.8,604.8,71.3z M788.6,74.9c0,5.6,2.6,10.3,10,10.3c5.2,0,7.6-2.3,8.7-5.3h14.4
	c-1.5,8.8-9.6,15.9-22.9,15.9c-16.3,0-25-10.8-25-24.4S782.5,47,798.2,47c14.9,0,24.2,9.8,24.2,22.7c0,1.8-0.1,2.8-0.5,5.3
	L788.6,74.9L788.6,74.9z M788.6,66.4h19.3c0-5.6-3.9-9.1-9.6-9.1C792.7,57.2,788.6,60.5,788.6,66.4z M905.9,48.1v46.4h-14.7V88
	c-2.3,4.2-7.7,7.7-14.8,7.7c-12.3,0-21.9-10.5-21.9-24.4s9.6-24.4,21.9-24.4c6.8,0,12.3,3.3,14.8,7.8v-6.6
	C891.2,48.1,905.9,48.1,905.9,48.1z M891.2,71.3c0-6.4-4.4-11.8-11.1-11.8c-6.6,0-11.1,5.5-11.1,11.8c0,6.4,4.4,11.8,11.1,11.8
	C886.8,83.1,891.2,77.7,891.2,71.3z M912.4,27.1h14.7v67.4h-14.7V27.1z M471.2,67.2c-7.8-2.6-11.8-3.2-11.8-6.6c0-2.7,2.5-4,5.6-4
	c3.6,0,5.6,1.9,5.9,5.2h14.6c-0.4-8.4-6.7-14.8-20.6-14.8c-11.7,0-19.9,4.5-19.9,14.2c0,8.6,6.4,11,14.3,13.5
	c8.8,2.8,12.4,3.4,12.4,6.9c0,3.1-2.5,4.3-6.1,4.3c-4.1,0-7-1.7-7.4-6h-14.4c0.4,10.2,8.3,15.9,21.6,15.9c11.1,0,20.7-3.9,20.7-14.8
	C486.1,71.8,479.3,69.6,471.2,67.2z M566.5,83.2c-1.4,0.2-3.6,0.3-4.9,0.3c-4,0-6.7-1-6.7-7.9V59.1h10.6v-11h-10.6V34.3h-14.6v44.6
	c0,15.5,9.5,16.4,16.4,16.4c3.2,0,5.8-0.2,7.8-0.5L566.5,83.2z M853,83.2c-1.4,0.2-3.6,0.3-4.9,0.3c-4,0-6.7-1-6.7-7.9V59.1H852v-11
	h-10.6V34.3h-14.6v44.6c0,15.5,9.5,16.4,16.4,16.4c3.2,0,5.8-0.2,7.8-0.5L853,83.2z M751.3,27.1L733.5,74l-18-46.8h-18v67.3h15.2
	V52.7l14.2,39.6h13l13.8-39.6v41.7H769V27.1H751.3z M638.7,54.7c2.3-4.2,7.7-7.8,14.9-7.8c12.3,0,21.9,10.5,21.9,24.4
	s-9.6,24.4-21.9,24.4c-7.2,0-12.6-3.6-14.9-7.8v27.6H624V48.1h14.7V54.7z M638.7,71.3c0,6.4,4.4,11.8,11.1,11.8
	c6.6,0,11.1-5.4,11.1-11.8s-4.4-11.8-11.1-11.8C643.1,59.5,638.7,64.8,638.7,71.3z"/>
</svg>
