<?xml version="1.0" encoding="utf-8"?>
<!-- Generator: Adobe Illustrator 19.0.1, SVG Export Plug-In . SVG Version: 6.00 Build 0)  -->
<svg version="1.1" id="Layer_1" xmlns="http://www.w3.org/2000/svg" xmlns:xlink="http://www.w3.org/1999/xlink" x="0px" y="0px"
	 viewBox="0 0 950 120" style="enable-background:new 0 0 950 120;" xml:space="preserve">
<style type="text/css">
	.st0{fill:#FF3333;}
	.st1{fill:#FFFFFF;}
</style>
<path d="M65.6,3c31.9,0,57.7,25.8,57.7,57.7v0c0,31.9-25.8,57.7-57.7,57.7h-2.9V3H65.6z M56.9,3H5C3.4,3,2.1,4.3,2.1,5.9v109.6
	c0,1.6,1.3,2.9,2.9,2.9h51.9V3z M250.2,118.4h48.1c2.5,0,3.8-3,2.1-4.9l-50.2-52.7V118.4z M189.6,4.5v113.9h54.8V54.8L194.6,2.5
	C192.8,0.6,189.6,1.9,189.6,4.5z M129,4.5v111c0,1.6,1.3,2.9,2.9,2.9h51.9V54.8L134,2.5C132.2,0.6,129,1.9,129,4.5z M938.7,28.1
	v-0.9h-5.6v0.9h2.2v6.1h1.2v-6.1H938.7z M947.9,34.1v-7h-1.8l-2.1,5.3l-2.1-5.3h-1.8v7h1.2v-5.9h0l2.3,5.9h0.7l2.3-5.9h0v5.9H947.9z
	 M328.5,27.1v67.4h24.7c22.4,0,35-16.5,35-33.7s-12.7-33.7-35-33.7H328.5z M352.5,40.6c12.6,0,19.9,9.8,19.9,20.2
	c0,10.4-7.3,20.2-19.9,20.2h-8.4V40.6H352.5z M439.8,74.9c0.4-2.5,0.5-3.5,0.5-5.3c0-12.9-9.2-22.7-24.2-22.7
	c-15.7,0-24.4,10.9-24.4,24.4c0,13.7,8.8,24.4,25,24.4c13.3,0,21.4-7.1,22.9-15.9h-14.4c-1.1,3-3.5,5.3-8.7,5.3
	c-7.4,0-10-4.7-10-10.3H439.8z M416.2,57.2c5.7,0,9.6,3.6,9.6,9.1h-19.3C406.6,60.5,410.7,57.2,416.2,57.2z M537.8,48.1h-17.5
	L506,67.7V27.1h-14.7v67.4H506V75l14.2,19.4h17.5l-18-23.2L537.8,48.1z M593.7,95.7c16.1,0,25.7-11.2,25.7-24.4
	c0-13.3-9.6-24.4-25.7-24.4C577.7,46.8,568,58,568,71.3C568,84.6,577.7,95.7,593.7,95.7z M593.7,83.1c-6.6,0-11-5.3-11-11.8
	c0-6.4,4.3-11.8,11-11.8c6.7,0,11.2,5.4,11.2,11.8C604.8,77.8,600.4,83.1,593.7,83.1z M821.8,74.9c0.4-2.5,0.5-3.5,0.5-5.3
	c0-12.9-9.2-22.7-24.2-22.7c-15.7,0-24.4,10.9-24.4,24.4c0,13.7,8.8,24.4,25,24.4c13.3,0,21.4-7.1,22.9-15.9h-14.4
	c-1.1,3-3.5,5.3-8.7,5.3c-7.4,0-10-4.7-10-10.3H821.8z M798.2,57.2c5.7,0,9.6,3.6,9.6,9.1h-19.3C788.6,60.5,792.7,57.2,798.2,57.2z
	 M891.2,48.1v6.6c-2.5-4.5-8-7.8-14.8-7.8c-12.3,0-21.9,10.5-21.9,24.4s9.6,24.4,21.9,24.4c7.1,0,12.5-3.5,14.8-7.7v6.5h14.7V48.1
	H891.2z M880.1,83.1c-6.6,0-11.1-5.4-11.1-11.8c0-6.4,4.4-11.8,11.1-11.8c6.6,0,11.1,5.5,11.1,11.8
	C891.2,77.7,886.8,83.1,880.1,83.1z M912.4,94.5h14.7V27.1h-14.7V94.5z M471.2,67.2c-7.8-2.6-11.8-3.2-11.8-6.6c0-2.7,2.5-4,5.6-4
	c3.6,0,5.6,1.9,5.9,5.2h14.6c-0.4-8.4-6.7-14.8-20.6-14.8c-11.7,0-19.9,4.5-19.9,14.2c0,8.6,6.4,11,14.3,13.5
	c8.8,2.8,12.4,3.4,12.4,6.9c0,3.1-2.5,4.3-6.1,4.3c-4.1,0-7-1.7-7.4-6h-14.4c0.4,10.2,8.3,15.9,21.6,15.9c11.1,0,20.7-3.9,20.7-14.8
	C486.1,71.8,479.3,69.6,471.2,67.2z M566.5,83.2c-1.4,0.2-3.6,0.3-4.9,0.3c-4,0-6.7-1-6.7-7.9V59.1h10.6v-11h-10.6V34.3h-14.6v44.6
	c0,15.5,9.5,16.4,16.4,16.4c3.2,0,5.8-0.2,7.8-0.5L566.5,83.2z M853,83.2c-1.4,0.2-3.6,0.3-4.9,0.3c-4,0-6.7-1-6.7-7.9V59.1H852v-11
	h-10.6V34.3h-14.6v44.6c0,15.5,9.5,16.4,16.4,16.4c3.2,0,5.8-0.2,7.8-0.5L853,83.2z M751.3,27.1L733.5,74l-18-46.8h-18v67.3h15.2
	V52.7l14.2,39.6h13l13.8-39.6v41.7H769V27.1H751.3z M638.7,48.1H624v67.4h14.7V87.8c2.3,4.2,7.7,7.8,14.9,7.8
	c12.3,0,21.9-10.5,21.9-24.4s-9.6-24.4-21.9-24.4c-7.2,0-12.6,3.6-14.9,7.8V48.1z M649.7,59.5c6.6,0,11.1,5.4,11.1,11.8
	s-4.4,11.8-11.1,11.8c-6.6,0-11.1-5.4-11.1-11.8S643.1,59.5,649.7,59.5z"/>
</svg>
